<svg width="880" height="200" viewBox="0 0 880 200" xmlns="http://www.w3.org/2000/svg" role="img" aria-label="EdgeLM logo">
  <defs>
    <linearGradient id="tileD" x1="20" y1="20" x2="180" y2="180" gradientUnits="userSpaceOnUse">
      <stop offset="0" stop-color="#1A1F23"/>
      <stop offset="1" stop-color="#0B0E10"/>
    </linearGradient>
    <linearGradient id="sigD" x1="0" y1="0" x2="0" y2="1">
      <stop offset="0" stop-color="#B6FF5A"/>
      <stop offset="1" stop-color="#7CEB1E"/>
    </linearGradient>
    <radialGradient id="sparkD" cx="0.5" cy="0.5" r="0.5">
      <stop offset="0" stop-color="#7DF3FF"/><stop offset="1" stop-color="#2DE3FF"/>
    </radialGradient>
  </defs>
  <!-- mark, 160px, positioned at x=20 y=20 -->
  <g transform="translate(20,20) scale(0.3125)">
    <path d="M104,0 L362,0 L512,150 L512,408 A104,104 0 0 1 408,512 L104,512 A104,104 0 0 1 0,408 L0,104 A104,104 0 0 1 104,0 Z" fill="url(#tileD)" stroke="#2A3238" stroke-width="2"/>
    <g fill="url(#sigD)">
      <rect x="150" y="150" width="46" height="212" rx="23"/>
      <rect x="150" y="150" width="190" height="46" rx="23"/>
      <rect x="150" y="233" width="140" height="46" rx="23"/>
      <rect x="150" y="316" width="190" height="46" rx="23"/>
    </g>
    <circle cx="356" cy="256" r="24" fill="url(#sparkD)"/>
  </g>
  <!-- wordmark -->
  <text x="212" y="128" font-family="'Segoe UI', 'Helvetica Neue', Arial, sans-serif" font-size="96" font-weight="700" letter-spacing="-3" fill="#F5F7F6">Edge<tspan fill="#9BFF3C">LM</tspan></text>
</svg>
